<mxfile host="app.diagrams.net" modified="2023-05-10T17:56:52.201Z" agent="Mozilla/5.0 (Macintosh; Intel Mac OS X 10_15_7) AppleWebKit/605.1.15 (KHTML, like Gecko) Version/16.1 Safari/605.1.15" version="21.2.3" etag="lbXqHfoNSLPl0QZfX0n1" type="github">
  <diagram name="Page-1" id="cqvSATBdRfv_tLjIJc5c">
    <mxGraphModel>
      <root>
        <mxCell id="0" />
        <mxCell id="1" parent="0" />
      </root>
    </mxGraphModel>
  </diagram>
</mxfile>
